<?xml version="1.0" standalone="no"?>
<!DOCTYPE svg PUBLIC "-//W3C//DTD SVG 20010904//EN"
 "http://www.w3.org/TR/2001/REC-SVG-20010904/DTD/svg10.dtd">
<svg version="1.0" xmlns="http://www.w3.org/2000/svg"
 width="4167.000000pt" height="4167.000000pt" viewBox="0 0 4167.000000 4167.000000"
 preserveAspectRatio="xMidYMid meet">
<metadata>
Created by potrace 1.14, written by Peter Selinger 2001-2017
</metadata>
<g transform="translate(0.000000,4167.000000) scale(0.100000,-0.100000)"
fill="#000000" stroke="none">
<path d="M0 20835 l0 -20835 20835 0 20835 0 0 20835 0 20835 -20835 0 -20835
0 0 -20835z m20782 15037 c-402 -737 -6797 -12370 -6799 -12368 -2 1 476 1343
1062 2981 585 1639 1062 2981 1060 2983 -2 3 -53 -36 -112 -85 -59 -49 -2239
-1859 -4843 -4023 -2604 -2164 -4881 -4055 -5060 -4203 l-325 -269 7525 7526
c4139 4139 7526 7526 7527 7526 1 0 -14 -31 -35 -68z m2433 -7546 c1278 -4097
2323 -7451 2322 -7453 -2 -1 -1059 1501 -2350 3339 l-2347 3341 0 4186 1 4186
24 -75 c13 -41 1071 -3427 2350 -7524z m5200 53 c5244 -5245 7516 -7524 7485
-7508 -258 139 -12399 6813 -12397 6815 1 2 1343 -476 2982 -1061 1638 -586
2980 -1063 2982 -1061 3 3 -8505 10252 -8570 10324 -11 12 -19 22 -16 22 2 0
3393 -3389 7534 -7531z m-11748 4593 l-1037 -1037 -283 -142 c-948 -477 -1798
-1048 -2575 -1731 -393 -345 -820 -771 -1163 -1162 -685 -781 -1254 -1628
-1732 -2577 l-142 -283 -1038 -1037 c-809 -809 -1037 -1031 -1032 -1008 4 17
35 140 70 275 374 1438 992 2814 1826 4065 513 769 1049 1424 1699 2074 1590
1590 3543 2757 5695 3402 205 61 696 193 740 198 5 0 -457 -466 -1028 -1037z
m7522 983 c1243 -310 2519 -846 3656 -1535 1695 -1027 3154 -2424 4252 -4070
856 -1283 1474 -2669 1854 -4155 l58 -229 -1041 1039 -1040 1040 -71 145
c-1171 2418 -3157 4422 -5572 5621 l-240 119 -1040 1041 c-572 572 -1031 1038
-1020 1035 11 -3 103 -26 204 -51z m740 -4055 c1259 -1498 2289 -2726 2287
-2727 -1 -2 -718 265 -1592 593 l-1590 596 -717 2151 c-461 1383 -710 2144
-697 2132 10 -11 1049 -1246 2309 -2745z m-4986 -3300 c-12 -11 -3973 -1513
-3977 -1509 -2 2 893 1617 1988 3588 l1991 3583 3 -2828 c1 -1555 -1 -2831 -5
-2834z m-6038 -969 c-326 -871 -597 -1587 -602 -1591 -4 -4 -975 -330 -2157
-723 -1942 -647 -2145 -713 -2110 -683 338 288 5458 4586 5460 4583 2 -1 -264
-715 -591 -1586z m14785 -1924 c1961 -1089 3567 -1981 3569 -1983 2 -2 -1271
-4 -2830 -4 l-2834 0 -745 1963 c-409 1079 -750 1977 -757 1995 -14 33 -14 33
9 21 13 -6 1627 -903 3588 -1992z m-7882 1837 c-3 -3 -1511 -1062 -3350 -2354
l-3343 -2349 -4190 0 c-3638 0 -4184 2 -4145 15 125 39 15026 4693 15029 4693
2 1 2 -2 -1 -5z m15067 -4730 c-102 -35 -15000 -4683 -15003 -4680 -1 2 1499
1059 3335 2349 l3338 2346 4185 0 c3604 -1 4179 -3 4145 -15z m-23832 -3459
c3374 -1853 6134 -3371 6132 -3373 -1 -1 -1344 478 -2984 1064 -1641 586
-2985 1063 -2988 1061 -3 -4 6350 -7659 8494 -10235 52 -61 93 -112 91 -112
-2 0 -3392 3389 -7533 7531 l-7530 7532 92 -49 c50 -27 2852 -1565 6226 -3419z
m6441 100 l2346 -3339 -1 -4186 -1 -4185 -23 70 c-13 39 -1064 3402 -2335
7475 -1271 4073 -2320 7432 -2330 7465 -11 32 -16 55 -11 50 5 -6 1065 -1513
2355 -3350z m17386 3302 c0 -1 -3380 -3382 -7511 -7512 -4131 -4131 -7506
-7501 -7500 -7490 165 305 6826 12423 6828 12422 1 -2 -477 -1343 -1063 -2982
-585 -1639 -1063 -2983 -1061 -2988 1 -4 2320 1919 5152 4272 2833 2354 5151
4280 5153 4280 1 1 2 0 2 -2z m-20118 -2597 c373 -982 713 -1878 757 -1993
l79 -207 -72 39 c-39 22 -1655 920 -3591 1995 l-3520 1956 2834 -2 2834 -3
679 -1785z m16904 903 c-35 -36 -5482 -4608 -5484 -4604 -1 4 265 720 592
1591 l594 1584 2148 717 c2376 793 2160 722 2150 712z m-22802 -3668 c1075
-2167 2783 -3982 4883 -5188 219 -126 608 -330 805 -423 l126 -59 1038 -1036
1037 -1037 -119 28 c-1478 352 -2984 1013 -4289 1883 -988 658 -1889 1447
-2676 2342 -1066 1212 -1904 2603 -2486 4125 -100 261 -267 763 -347 1041 -58
201 -166 616 -166 636 0 4 466 -458 1035 -1027 l1035 -1035 124 -250z m24092
2063 c-194 -754 -455 -1496 -779 -2213 -107 -238 -367 -754 -497 -985 -860
-1540 -1997 -2885 -3365 -3983 -1508 -1211 -3232 -2074 -5110 -2558 l-189 -49
1049 1051 1050 1050 218 110 c2361 1187 4279 3102 5459 5454 l130 260 1042
1045 c572 575 1042 1042 1044 1038 2 -4 -21 -103 -52 -220z m-8264 -840 c-16
-29 -901 -1675 -1967 -3658 -1065 -1983 -1950 -3627 -1966 -3655 l-29 -50 0
3110 0 3110 1988 597 c1093 328 1991 597 1995 597 5 1 -5 -23 -21 -51z m-9627
-2715 c858 -321 1565 -590 1571 -596 12 -13 1436 -4278 1430 -4284 -2 -3
-3989 4734 -4566 5425 -48 57 -50 61 -23 51 15 -6 730 -274 1588 -596z"/>
</g>
</svg>
